# xmcd
#
# Track frame offsets: 
#        150
#        29782
#        45534
#        63811
#        83803
#        106722
#        139392
#        178249
#        198022
#        223690
#
# Disc length: 3267 seconds
#
# Revision: 2
# Processed by: cddbd v1.5.2PL0 Copyright (c) Steve Scherf et al.
# Submitted via: ExactAudioCopy v0.95b4
#
DISCID=8b0cc10a
DTITLE=Artistes Divers (Cabrel, Personne, Verbeke) - Autour Du Blues D
DTITLE=1
DYEAR=2001
DGENRE=Blues
TTITLE0=Black Night
TTITLE1=Key To The Highway
TTITLE2=Big Boss Man
TTITLE3=Suzy Q
TTITLE4=That's Allright
TTITLE5=Polochon Blues
TTITLE6=Stormy Monday
TTITLE7=Rollin' and Tumblin'
TTITLE8=Crossroad
TTITLE9=Ya Ya
EXTD=
EXTT0=
EXTT1=
EXTT2=
EXTT3=
EXTT4=
EXTT5=
EXTT6=
EXTT7=
EXTT8=
EXTT9=
PLAYORDER=
